<svg width="24" height="25" viewBox="0 0 24 25" fill="none" xmlns="http://www.w3.org/2000/svg">
<g clip-path="url(#clip0_9650_20648)">
<path d="M24 12.5508C24 5.92336 18.6274 0.550781 12 0.550781C5.37258 0.550781 0 5.92336 0 12.5508C0 18.5402 4.3882 23.5048 10.125 24.405V16.0195H7.07812V12.5508H10.125V9.90703C10.125 6.89953 11.9166 5.23828 14.6576 5.23828C15.9701 5.23828 17.3438 5.47266 17.3438 5.47266V8.42578H15.8306C14.34 8.42578 13.875 9.35086 13.875 10.3008V12.5508H17.2031L16.6711 16.0195H13.875V24.405C19.6118 23.5048 24 18.5402 24 12.5508Z" fill="#667085"/>
</g>
<defs>
<clipPath id="clip0_9650_20648">
<rect width="24" height="24" fill="white" transform="translate(0 0.550781)"/>
</clipPath>
</defs>
</svg>
