<svg width="24" height="25" viewBox="0 0 24 25" fill="none" xmlns="http://www.w3.org/2000/svg">
<g clip-path="url(#clip0_9650_20647)">
<path d="M22.2234 0.550781H1.77187C0.792187 0.550781 0 1.32422 0 2.28047V22.8164C0 23.7727 0.792187 24.5508 1.77187 24.5508H22.2234C23.2031 24.5508 24 23.7727 24 22.8211V2.28047C24 1.32422 23.2031 0.550781 22.2234 0.550781ZM7.12031 21.0023H3.55781V9.54609H7.12031V21.0023ZM5.33906 7.98516C4.19531 7.98516 3.27188 7.06172 3.27188 5.92266C3.27188 4.78359 4.19531 3.86016 5.33906 3.86016C6.47813 3.86016 7.40156 4.78359 7.40156 5.92266C7.40156 7.05703 6.47813 7.98516 5.33906 7.98516ZM20.4516 21.0023H16.8937V15.4336C16.8937 14.107 16.8703 12.3961 15.0422 12.3961C13.1906 12.3961 12.9094 13.8445 12.9094 15.3398V21.0023H9.35625V9.54609H12.7687V11.1117H12.8156C13.2891 10.2117 14.4516 9.26016 16.1813 9.26016C19.7859 9.26016 20.4516 11.632 20.4516 14.7164V21.0023Z" fill="#667085"/>
</g>
<defs>
<clipPath id="clip0_9650_20647">
<rect width="24" height="24" fill="white" transform="translate(0 0.550781)"/>
</clipPath>
</defs>
</svg>
