<svg width="154" height="26" viewBox="0 0 154 26" fill="none" xmlns="http://www.w3.org/2000/svg">
<path d="M99.7715 2.2378C99.7715 2.68039 99.9027 3.11305 100.149 3.48106C100.395 3.84906 100.744 4.13589 101.153 4.30526C101.562 4.47463 102.012 4.51894 102.446 4.43259C102.88 4.34624 103.279 4.13313 103.592 3.82016C103.905 3.5072 104.118 3.10846 104.204 2.67437C104.29 2.24028 104.246 1.79034 104.077 1.38143C103.907 0.972527 103.621 0.623019 103.253 0.377127C102.885 0.131234 102.452 0 102.009 0C101.416 0 100.847 0.235766 100.427 0.655434C100.007 1.0751 99.7715 1.6443 99.7715 2.2378Z" fill="#1E196A"/>
<path d="M4.13994 19.1896V15.4413H0V19.1896H4.13994ZM10.775 19.1896V11.7042H6.64627V19.1896H10.775ZM17.4213 19.1896V8.00062H13.2814V19.1896H17.4213ZM24.0563 19.1896V4.21875H19.9276V19.1896H24.0563Z" fill="#77C696"/>
<path d="M30.6245 19.189V12.9567H33.3882L37.2819 19.189H41.9477L37.3826 11.9609C38.2483 11.5373 38.9982 10.9098 39.5678 10.1324C40.1375 9.35502 40.5098 8.45091 40.6529 7.49782C40.796 6.54472 40.7055 5.57114 40.3892 4.66074C40.073 3.75034 39.5403 2.93036 38.8372 2.27125C38.2502 1.68603 37.5515 1.22494 36.7826 0.915458C36.0136 0.605971 35.1903 0.454412 34.3616 0.469817H26.5293V19.189H30.6245ZM142.604 12.4197C142.592 11.956 142.676 11.4949 142.852 11.0654C143.027 10.636 143.289 10.2475 143.622 9.92451C143.947 9.59229 144.335 9.32833 144.764 9.14812C145.192 8.96791 145.652 8.87508 146.117 8.87508C146.582 8.87508 147.042 8.96791 147.471 9.14812C147.899 9.32833 148.287 9.59229 148.612 9.92451C148.945 10.2475 149.208 10.636 149.383 11.0654C149.558 11.4949 149.642 11.956 149.631 12.4197C149.637 12.8876 149.551 13.3523 149.376 13.7864C149.201 14.2206 148.942 14.6156 148.612 14.9484C147.946 15.6004 147.05 15.9654 146.117 15.9654C145.185 15.9654 144.289 15.6004 143.622 14.9484C143.29 14.6175 143.029 14.2228 142.854 13.7882C142.679 13.3536 142.594 12.8881 142.604 12.4197ZM146.117 5.24752C144.128 5.21105 142.205 5.96327 140.769 7.33986C140.067 7.98415 139.511 8.77033 139.137 9.64616C138.763 10.522 138.579 11.4674 138.598 12.4197C138.583 13.3746 138.768 14.3222 139.142 15.2011C139.516 16.08 140.07 16.8706 140.769 17.5219C142.225 18.8538 144.127 19.5924 146.1 19.5924C148.074 19.5924 149.976 18.8538 151.432 17.5219C152.149 16.8812 152.719 16.0941 153.105 15.2138C153.491 14.3336 153.684 13.3807 153.67 12.4197C153.681 11.4623 153.486 10.5138 153.101 9.63765C152.715 8.76151 152.146 7.97806 151.432 7.33986C150.006 5.96839 148.096 5.2163 146.117 5.24752ZM125.843 12.4197C125.832 11.9731 125.916 11.5294 126.087 11.117C126.259 10.7047 126.515 10.3327 126.839 10.0252C127.156 9.70211 127.536 9.44791 127.956 9.27849C128.375 9.10906 128.825 9.02808 129.278 9.04059C129.739 9.02436 130.199 9.10342 130.628 9.27284C131.057 9.44225 131.447 9.69837 131.773 10.0252C132.11 10.325 132.379 10.6942 132.561 11.1074C132.742 11.5207 132.832 11.9683 132.825 12.4197C132.833 12.8662 132.744 13.3093 132.562 13.7173C132.38 14.1253 132.111 14.4883 131.773 14.7805C131.443 15.1011 131.052 15.3524 130.624 15.5196C130.195 15.6868 129.738 15.7665 129.278 15.754C128.827 15.764 128.378 15.683 127.959 15.5157C127.54 15.3485 127.159 15.0984 126.839 14.7805C126.514 14.4803 126.258 14.1145 126.086 13.7074C125.915 13.3003 125.832 12.8613 125.843 12.4197ZM121.837 12.4197C121.817 13.3207 121.975 14.2168 122.304 15.0561C122.632 15.8955 123.124 16.6613 123.75 17.3093C124.372 17.9491 125.12 18.4533 125.946 18.7903C126.772 19.1273 127.659 19.2897 128.551 19.2673C130.52 19.2673 132.131 18.596 132.69 17.6337V17.9247C132.753 18.4767 132.677 19.0356 132.47 19.5511C132.263 20.0667 131.931 20.5228 131.504 20.8785C130.673 21.3797 129.71 21.6212 128.741 21.5723C127.258 21.5525 125.813 21.1057 124.578 20.2855L122.676 23.1835C124.631 24.5049 126.953 25.1745 129.311 25.0968C131.079 25.1598 132.814 24.6104 134.223 23.5415C136.07 22.1093 136.584 20.0729 136.584 16.9288V5.65033H132.579V7.42937C132.176 6.24334 130.598 5.41535 128.551 5.41535C127.652 5.39462 126.759 5.5655 125.931 5.91662C125.104 6.26773 124.36 6.79106 123.75 7.45176C122.484 8.79137 121.796 10.5764 121.837 12.4197ZM110.749 19.189V11.5917C110.733 11.2368 110.791 10.8825 110.919 10.551C111.047 10.2196 111.242 9.91832 111.492 9.66606C111.743 9.41381 112.042 9.21606 112.373 9.08531C112.703 8.95455 113.057 8.89361 113.412 8.90631C113.751 8.87748 114.092 8.92436 114.41 9.04353C114.729 9.1627 115.017 9.35119 115.253 9.59536C115.49 9.83953 115.669 10.1333 115.779 10.4553C115.888 10.7774 115.924 11.1196 115.885 11.4574V19.189H119.879V10.9651C119.879 7.45176 117.999 5.3706 114.699 5.3706C113.922 5.30835 113.143 5.46003 112.447 5.80917C111.751 6.15832 111.163 6.69158 110.749 7.35104V5.66151H106.754V19.2002L110.749 19.189ZM104.035 19.189V5.65033H100.03V19.189H104.035ZM80.9637 19.189V11.5917C80.9234 11.2665 80.9502 10.9365 81.0425 10.6221C81.1348 10.3077 81.2907 10.0156 81.5005 9.76387C81.7103 9.51215 81.9695 9.30616 82.2621 9.15865C82.5546 9.01114 82.8744 8.92525 83.2015 8.90631C84.4883 8.90631 85.2156 9.86856 85.2156 11.4574V19.189H89.2212V11.5917C89.1809 11.2665 89.2077 10.9365 89.3 10.6221C89.3923 10.3077 89.5482 10.0156 89.758 9.76387C89.9677 9.51215 90.2269 9.30616 90.5195 9.15865C90.8121 9.01114 91.1319 8.92525 91.459 8.90631C92.757 8.90631 93.473 9.86856 93.473 11.4574V19.189H97.4787V10.9651C97.4787 7.45176 95.7556 5.3706 92.6674 5.3706C90.4296 5.3706 88.9079 6.09788 88.1918 7.51889C87.8837 6.81794 87.3616 6.23254 86.7003 5.84662C86.039 5.46069 85.2725 5.29406 84.5106 5.3706C83.7967 5.32873 83.0859 5.49319 82.4629 5.84436C81.8399 6.19554 81.3311 6.71857 80.9973 7.35104V5.66151H76.9916V19.2002L80.9637 19.189ZM66.9999 15.8323C66.5511 15.8467 66.104 15.771 65.685 15.6096C65.2661 15.4481 64.8837 15.2043 64.5607 14.8924C64.2383 14.579 63.9837 14.2029 63.8124 13.7872C63.6411 13.3715 63.5569 12.9251 63.5648 12.4756C63.5545 12.0291 63.6379 11.5854 63.8094 11.173C63.9809 10.7606 64.2368 10.3887 64.5607 10.0812C64.8776 9.75806 65.2579 9.50386 65.6776 9.33444C66.0973 9.16501 66.5474 9.08403 66.9999 9.09654C67.4611 9.08031 67.9208 9.15937 68.3501 9.32878C68.7794 9.4982 69.1692 9.75432 69.495 10.0812C69.8325 10.3809 70.1012 10.7501 70.2827 11.1634C70.4642 11.5767 70.5543 12.0243 70.5468 12.4756C70.5524 12.9299 70.4616 13.3803 70.2803 13.7969C70.099 14.2135 69.8313 14.5869 69.495 14.8924C68.8267 15.5083 67.9415 15.8342 67.0334 15.7987L66.9999 15.8323ZM66.2726 5.44892C65.3738 5.42819 64.4809 5.59906 63.6532 5.95018C62.8256 6.3013 62.0822 6.82462 61.4725 7.48532C60.2058 8.82494 59.5183 10.61 59.5592 12.4532C59.522 14.3025 60.2085 16.0931 61.4725 17.4435C62.0869 18.0968 62.8316 18.6136 63.6585 18.9606C64.4855 19.3075 65.3761 19.4769 66.2726 19.4575C68.3202 19.4575 69.8978 18.6296 70.3006 17.4435V19.2226H74.3063V5.68389H70.3006V7.46294C69.9314 6.24334 68.3537 5.41535 66.3062 5.41535L66.2726 5.44892ZM47.0163 12.4532C47.0059 11.9887 47.092 11.5271 47.2692 11.0976C47.4464 10.6681 47.7108 10.2801 48.0457 9.95808C48.3708 9.62585 48.759 9.36189 49.1875 9.18168C49.6159 9.00147 50.076 8.90865 50.5409 8.90865C51.0057 8.90865 51.4658 9.00147 51.8943 9.18168C52.3228 9.36189 52.7109 9.62585 53.036 9.95808C53.3689 10.2811 53.6313 10.6695 53.8065 11.099C53.9817 11.5284 54.0661 11.9896 54.0542 12.4532C54.0609 12.9212 53.9743 13.3858 53.7995 13.82C53.6247 14.2542 53.3651 14.6492 53.036 14.9819C52.3691 15.6339 51.4735 15.999 50.5409 15.999C49.6082 15.999 48.7126 15.6339 48.0457 14.9819C47.7144 14.6449 47.4553 14.2438 47.2841 13.8033C47.1129 13.3628 47.0332 12.892 47.0499 12.4197L47.0163 12.4532ZM50.5409 5.28109C48.5517 5.24462 46.6289 5.99683 45.1925 7.37342C44.4911 8.01771 43.9347 8.80389 43.5605 9.67972C43.1862 10.5555 43.0026 11.501 43.0219 12.4532C43.0065 13.4082 43.1918 14.3558 43.5657 15.2347C43.9397 16.1136 44.4939 16.9042 45.1925 17.5554C46.6487 18.8873 48.5506 19.626 50.5241 19.626C52.4975 19.626 54.3995 18.8873 55.8556 17.5554C56.5722 16.9147 57.1427 16.1276 57.5288 15.2474C57.9149 14.3672 58.1074 13.4143 58.0934 12.4532C58.1042 11.4959 57.9101 10.5474 57.5242 9.67122C57.1382 8.79508 56.5693 8.01162 55.8556 7.37342C54.4433 5.99792 52.5459 5.23415 50.5744 5.24752L50.5409 5.28109ZM30.5909 4.26289H34.2161C34.5334 4.26547 34.847 4.3323 35.1377 4.45935C35.4285 4.58639 35.6906 4.77102 35.908 5.0021C36.1255 5.23317 36.2939 5.50591 36.4031 5.80385C36.5123 6.10179 36.5601 6.41877 36.5434 6.73566C36.5604 7.08925 36.5019 7.44239 36.3718 7.77164C36.2418 8.10088 36.0432 8.3987 35.7892 8.64528C35.5352 8.89186 35.2316 9.08157 34.8987 9.20181C34.5657 9.32206 34.211 9.37007 33.8581 9.34268H30.5909V4.26289Z" fill="#1E196A"/>
</svg>
