<svg width="138" height="24" viewBox="0 0 138 24" fill="none" xmlns="http://www.w3.org/2000/svg">
<path d="M89.2109 2.79736C89.2109 3.19293 89.3282 3.57961 89.548 3.90851C89.7678 4.23741 90.0801 4.49374 90.4456 4.64511C90.811 4.79649 91.2132 4.83611 91.6011 4.75894C91.9891 4.68177 92.3454 4.49128 92.6252 4.21158C92.9049 3.93187 93.0953 3.57549 93.1725 3.18753C93.2497 2.79957 93.2101 2.39743 93.0587 2.03198C92.9073 1.66653 92.651 1.35419 92.3221 1.13443C91.9932 0.914667 91.6065 0.797363 91.2109 0.797363C90.6805 0.797363 90.1718 1.00808 89.7967 1.38315C89.4216 1.75822 89.2109 2.26693 89.2109 2.79736Z" fill="white"/>
<path d="M3.72 17.9476V14.5976H0V17.9476H3.72ZM9.66 17.9476V11.2476H5.96V17.9476H9.66ZM15.6 17.9476V7.94763H11.9V17.9476H15.6ZM21.53 17.9476V4.55762H17.81V17.9476H21.53Z" fill="#77C696"/>
<path d="M27.4107 4.57747H30.6507C30.9335 4.58112 31.2125 4.64183 31.4713 4.75597C31.73 4.87011 31.963 5.03534 32.1563 5.24171C32.3496 5.44809 32.4992 5.69137 32.5962 5.95699C32.6932 6.2226 32.7355 6.50508 32.7207 6.78746C32.736 7.10308 32.6838 7.41834 32.5675 7.71214C32.4511 8.00595 32.2734 8.27152 32.0463 8.49114C31.8191 8.71075 31.5476 8.87936 31.25 8.98564C30.9525 9.09193 30.6356 9.13346 30.3207 9.10747H27.4107V4.57747ZM45.2507 5.48747C44.3699 5.46805 43.4941 5.6233 42.6736 5.94426C41.8532 6.26522 41.1045 6.74554 40.4707 7.35747C39.8438 7.93329 39.3466 8.63593 39.0121 9.41869C38.6776 10.2014 38.5135 11.0464 38.5307 11.8975C38.5145 12.7513 38.679 13.599 39.0133 14.3848C39.3476 15.1707 39.8443 15.877 40.4707 16.4575C41.7721 17.6479 43.472 18.308 45.2357 18.308C46.9994 18.308 48.6993 17.6479 50.0007 16.4575C50.6411 15.8849 51.151 15.1814 51.4961 14.3947C51.8411 13.608 52.0132 12.7564 52.0007 11.8975C52.0103 11.0419 51.8369 10.1941 51.4919 9.41109C51.147 8.62805 50.6385 7.92785 50.0007 7.35747C48.728 6.12893 47.0194 5.45628 45.2507 5.48747ZM42.1007 11.8975C42.0901 11.4831 42.1655 11.0709 42.3221 10.6871C42.4787 10.3033 42.7132 9.95613 43.0107 9.66747C43.3021 9.37024 43.6499 9.13413 44.0336 8.97295C44.4174 8.81176 44.8295 8.72874 45.2457 8.72874C45.6619 8.72874 46.074 8.81176 46.4578 8.97295C46.8415 9.13413 47.1893 9.37024 47.4807 9.66747C47.7782 9.95613 48.0127 10.3033 48.1693 10.6871C48.3259 11.0709 48.4013 11.4831 48.3907 11.8975C48.3976 12.3144 48.3206 12.7284 48.1643 13.1149C48.0079 13.5014 47.7755 13.8526 47.4807 14.1475C47.039 14.5903 46.4754 14.8916 45.8617 15.013C45.2481 15.1343 44.6123 15.0702 44.0352 14.8289C43.4582 14.5876 42.966 14.1799 42.6215 13.6578C42.277 13.1358 42.0957 12.523 42.1007 11.8975ZM59.3107 5.62746C58.5051 5.60941 57.7049 5.76332 56.9634 6.07887C56.2219 6.39443 55.5562 6.8644 55.0107 7.45747C53.8841 8.65749 53.2736 10.2519 53.3107 11.8975C53.279 13.5481 53.8883 15.1467 55.0107 16.3575C55.5621 16.9411 56.2295 17.4027 56.9701 17.7128C57.7107 18.0228 58.508 18.1743 59.3107 18.1575C61.1307 18.1575 62.5507 17.4175 62.9107 16.3575V17.9475H66.4907V5.84746H62.9107V7.42748C62.5507 6.37748 61.1307 5.62746 59.3107 5.62746ZM59.9607 14.9175C59.5565 14.9291 59.1542 14.8589 58.7779 14.7111C58.4015 14.5633 58.059 14.341 57.7707 14.0574C57.484 13.7768 57.2579 13.4404 57.1065 13.0688C56.9551 12.6972 56.8817 12.2986 56.8907 11.8975C56.8796 11.4991 56.9522 11.1028 57.1038 10.7341C57.2553 10.3655 57.4825 10.0328 57.7707 9.75746C58.0564 9.46853 58.3979 9.24065 58.7743 9.08766C59.1508 8.93467 59.5544 8.85977 59.9607 8.86748C60.3737 8.85427 60.7849 8.92649 61.1686 9.07964C61.5524 9.23279 61.9003 9.46355 62.1907 9.75746C62.4902 10.0271 62.729 10.3573 62.8911 10.7263C63.0531 11.0952 63.1348 11.4945 63.1307 11.8975C63.1332 12.3031 63.0509 12.7048 62.889 13.0768C62.7272 13.4488 62.4893 13.7828 62.1907 14.0574C61.8941 14.3408 61.5443 14.5627 61.1616 14.7103C60.7789 14.8578 60.3708 14.9283 59.9607 14.9175ZM72.4407 17.9175V11.1975C72.4046 10.9068 72.4286 10.6119 72.5111 10.3309C72.5936 10.0499 72.7329 9.78887 72.9204 9.56389C73.1079 9.33891 73.3396 9.15483 73.6011 9.023C73.8626 8.89116 74.1483 8.8144 74.4407 8.79747C75.5907 8.79747 76.2407 9.66747 76.2407 11.0775V17.9975H79.8207V11.1975C79.7846 10.9068 79.8086 10.6119 79.8911 10.3309C79.9736 10.0499 80.1129 9.78887 80.3004 9.56389C80.4879 9.33891 80.7196 9.15483 80.9811 9.023C81.2426 8.89116 81.5283 8.8144 81.8207 8.79747C82.9707 8.79747 83.6207 9.66747 83.6207 11.0775V17.9975H87.2007V10.5975C87.2007 7.45746 85.6607 5.59746 82.9007 5.59746C80.9007 5.59746 79.5407 6.24745 78.9007 7.52745C78.6269 6.89913 78.161 6.37382 77.5698 6.02702C76.9786 5.68023 76.2927 5.52983 75.6107 5.59746C74.9716 5.56096 74.3355 5.70944 73.7786 6.02513C73.2217 6.34082 72.7676 6.81034 72.4707 7.37746V5.86748H68.8907V17.9675L72.4407 17.9175ZM93.0507 17.9175V5.81746H89.4807V17.9175H93.0507ZM99.0507 17.9175V11.1975C99.0382 10.8806 99.091 10.5646 99.206 10.2691C99.3209 9.97361 99.4954 9.70492 99.7187 9.47978C99.9419 9.25464 100.209 9.07788 100.504 8.9605C100.798 8.84311 101.114 8.78762 101.431 8.79747C101.733 8.77328 102.036 8.81633 102.32 8.92354C102.603 9.03074 102.859 9.19943 103.07 9.41747C103.28 9.6355 103.439 9.89746 103.536 10.1845C103.633 10.4715 103.666 10.7765 103.631 11.0775V17.9975H107.211V10.5975C107.211 7.45746 105.531 5.59746 102.581 5.59746C101.886 5.54285 101.189 5.67994 100.567 5.99379C99.9444 6.30764 99.42 6.78623 99.0507 7.37746V5.86748H95.4707V17.9675L99.0507 17.9175ZM108.961 11.8675C108.942 12.6714 109.083 13.471 109.377 14.2197C109.67 14.9683 110.11 15.6508 110.671 16.2275C111.224 16.8026 111.892 17.2561 112.63 17.5591C113.369 17.8621 114.163 18.008 114.961 17.9875C116.711 17.9875 118.151 17.3875 118.661 16.5175V16.7875C118.716 17.2809 118.649 17.7803 118.464 18.2411C118.279 18.7019 117.982 19.1095 117.601 19.4275C116.856 19.8709 115.997 20.0864 115.131 20.0475C113.806 20.0309 112.514 19.6315 111.411 18.8975L109.711 21.4875C111.455 22.6664 113.527 23.2648 115.631 23.1975C117.216 23.2566 118.771 22.7615 120.031 21.7975C121.681 20.5275 122.141 18.7075 122.141 15.8975V5.84746H118.561V7.42748C118.201 6.37748 116.791 5.62746 114.961 5.62746C114.156 5.60825 113.357 5.76167 112.617 6.07735C111.877 6.39302 111.214 6.86363 110.671 7.45747C109.529 8.65035 108.907 10.2469 108.941 11.8975L108.961 11.8675ZM112.541 11.8675C112.532 11.4684 112.606 11.0718 112.759 10.7033C112.912 10.3347 113.141 10.0023 113.431 9.72746C113.715 9.43976 114.055 9.2126 114.43 9.05965C114.804 8.9067 115.206 8.83113 115.611 8.83748C116.024 8.82427 116.435 8.89649 116.819 9.04964C117.202 9.20279 117.55 9.43355 117.841 9.72746C118.142 9.99539 118.382 10.3253 118.545 10.6947C118.707 11.064 118.787 11.4641 118.781 11.8675C118.787 12.2664 118.706 12.6619 118.544 13.0264C118.382 13.3908 118.142 13.7154 117.841 13.9775C117.545 14.2626 117.196 14.4857 116.813 14.6334C116.43 14.7811 116.021 14.8505 115.611 14.8375C115.208 14.8477 114.808 14.7769 114.433 14.6291C114.059 14.4814 113.718 14.2598 113.431 13.9775C113.142 13.7135 112.912 13.3921 112.755 13.0338C112.599 12.6756 112.519 12.2885 112.521 11.8975L112.541 11.8675ZM130.661 5.45747C129.78 5.43916 128.905 5.59491 128.084 5.91582C127.264 6.23672 126.515 6.71645 125.881 7.32747C125.254 7.90329 124.757 8.60593 124.422 9.38869C124.088 10.1714 123.924 11.0164 123.941 11.8675C123.927 12.721 124.093 13.5679 124.427 14.3533C124.761 15.1388 125.256 15.8454 125.881 16.4275C127.182 17.6179 128.882 18.278 130.646 18.278C132.409 18.278 134.109 17.6179 135.411 16.4275C136.051 15.8549 136.561 15.1514 136.906 14.3647C137.251 13.578 137.423 12.7264 137.411 11.8675C137.42 11.0119 137.247 10.1641 136.902 9.38109C136.557 8.59805 136.049 7.89785 135.411 7.32747C134.776 6.72124 134.028 6.24654 133.21 5.93074C132.391 5.61495 131.518 5.46431 130.641 5.48747L130.661 5.45747ZM127.511 11.8675C127.501 11.4523 127.578 11.0398 127.737 10.6559C127.895 10.2721 128.131 9.92526 128.431 9.63747C128.721 9.34054 129.068 9.10462 129.451 8.94356C129.834 8.7825 130.245 8.69954 130.661 8.69954C131.076 8.69954 131.487 8.7825 131.87 8.94356C132.253 9.10462 132.6 9.34054 132.891 9.63747C133.188 9.92613 133.423 10.2733 133.579 10.6571C133.736 11.0409 133.811 11.4531 133.801 11.8675C133.808 12.2844 133.731 12.6984 133.574 13.0849C133.418 13.4714 133.185 13.8226 132.891 14.1175C132.298 14.7074 131.497 15.0386 130.661 15.0386C129.825 15.0386 129.023 14.7074 128.431 14.1175C128.133 13.8293 127.897 13.4843 127.735 13.1029C127.574 12.7216 127.491 12.3116 127.491 11.8975L127.511 11.8675ZM27.4107 17.9475V12.3775H29.8907L33.3707 17.9475H37.5407L33.4607 11.4875C34.2344 11.1089 34.9046 10.5481 35.4137 9.85329C35.9228 9.15849 36.2556 8.35046 36.3835 7.49864C36.5114 6.64683 36.4305 5.77672 36.1478 4.96306C35.8651 4.1494 35.3891 3.41654 34.7607 2.82747C34.2324 2.29686 33.602 1.87884 32.9076 1.59868C32.2133 1.31852 31.4693 1.18204 30.7207 1.19746H23.7207V17.9275L27.4107 17.9475Z" fill="white"/>
</svg>
