<svg width="24" height="25" viewBox="0 0 24 25" fill="none" xmlns="http://www.w3.org/2000/svg">
<path d="M7.55016 22.3005C16.6045 22.3005 21.5583 14.7972 21.5583 8.2924C21.5583 8.08146 21.5536 7.86584 21.5442 7.6549C22.5079 6.958 23.3395 6.09479 24 5.10584C23.1025 5.50514 22.1496 5.76592 21.1739 5.87927C22.2013 5.26345 22.9705 4.29601 23.3391 3.1563C22.3726 3.72909 21.3156 4.13315 20.2134 4.35115C19.4708 3.5621 18.489 3.03965 17.4197 2.86459C16.3504 2.68952 15.2532 2.87159 14.2977 3.38263C13.3423 3.89368 12.5818 4.70524 12.1338 5.69185C11.6859 6.67845 11.5754 7.78515 11.8195 8.84084C9.86249 8.74263 7.94794 8.23424 6.19998 7.34864C4.45203 6.46303 2.90969 5.21997 1.67297 3.70005C1.0444 4.78378 0.852057 6.06618 1.13503 7.28663C1.418 8.50707 2.15506 9.57398 3.19641 10.2705C2.41463 10.2457 1.64998 10.0352 0.965625 9.65646V9.7174C0.964925 10.8547 1.3581 11.9571 2.07831 12.8373C2.79852 13.7175 3.80132 14.3211 4.91625 14.5455C4.19206 14.7437 3.43198 14.7725 2.69484 14.6299C3.00945 15.608 3.62157 16.4634 4.44577 17.0769C5.26997 17.6903 6.26512 18.0311 7.29234 18.0518C5.54842 19.4216 3.39417 20.1647 1.17656 20.1611C0.783287 20.1605 0.390399 20.1364 0 20.089C2.25286 21.5343 4.87353 22.3019 7.55016 22.3005Z" fill="#667085"/>
</svg>
