<svg width="22" height="22" viewBox="0 0 22 22" fill="none" xmlns="http://www.w3.org/2000/svg">
<path d="M15.2173 12.8335C15.034 12.7418 13.8423 12.1918 13.659 12.1001C13.4757 12.0085 13.2923 12.0085 13.109 12.1918C12.9257 12.3751 12.559 12.9251 12.3757 13.1085C12.284 13.2918 12.1007 13.2918 11.9173 13.2001C11.2757 12.9251 10.634 12.5585 10.084 12.1001C9.62565 11.6418 9.16732 11.0918 8.80065 10.5418C8.70898 10.3585 8.80065 10.1751 8.89232 10.0835C8.98398 9.9918 9.07565 9.80846 9.25899 9.7168C9.35065 9.62513 9.44232 9.4418 9.44232 9.35013C9.53398 9.25846 9.53398 9.07513 9.44232 8.98346C9.35065 8.8918 8.89232 7.7918 8.70898 7.33346C8.61732 6.6918 8.43398 6.6918 8.25065 6.6918H7.79232C7.60898 6.6918 7.33398 6.87513 7.24232 6.9668C6.69232 7.5168 6.41732 8.15846 6.41732 8.8918C6.50898 9.7168 6.78398 10.5418 7.33398 11.2751C8.34232 12.7418 9.62565 13.9335 11.184 14.6668C11.6423 14.8501 12.009 15.0335 12.4673 15.1251C12.9257 15.3085 13.384 15.3085 13.934 15.2168C14.5757 15.1251 15.1257 14.6668 15.4923 14.1168C15.6757 13.7501 15.6757 13.3835 15.584 13.0168L15.2173 12.8335ZM17.509 4.4918C13.934 0.916797 8.15898 0.916797 4.58398 4.4918C1.65065 7.42513 1.10065 11.9168 3.11732 15.4918L1.83398 20.1668L6.69232 18.8835C8.06732 19.6168 9.53398 19.9835 11.0007 19.9835C16.0423 19.9835 20.0757 15.9501 20.0757 10.9085C20.1673 8.52513 19.159 6.23346 17.509 4.4918ZM15.034 17.3251C13.8423 18.0585 12.4673 18.5168 11.0007 18.5168C9.62565 18.5168 8.34232 18.1501 7.15065 17.5085L6.87565 17.3251L4.03398 18.0585L4.76732 15.3085L4.58398 15.0335C2.38398 11.3668 3.48398 6.78346 7.05898 4.4918C10.634 2.20013 15.2173 3.3918 17.4173 6.87513C19.6173 10.4501 18.609 15.1251 15.034 17.3251Z" fill="white"/>
</svg>
